# xmcd
#
# Track frame offsets:
#	150
#	21037
#	37062
#	52097
#	66817
#	83032
#	99317
#	118547
#	138988
#	158032
#
# Disc length: 2296 seconds
#
# Revision: 0
# Processed by: cddbd v1.5.2PL0 Copyright (c) Steve Scherf et al.
# Submitted via: EasyCDDAExtractor 11.0.0.1
#
DISCID=7d08f60a
DTITLE=Αντωνιάδης Χρήστος - Η πρώτη αγάπη CD2
DYEAR=2000
DGENRE=ΛΑΪΚΑ
TTITLE0=Αντωνιάδης Χρήστος_01 Φεύγω μακριά
TTITLE1=Αντωνιάδης Χρήστος_02 Ο δικός μου ο Θεός
TTITLE2=Αντωνιάδης Χρήστος_03 Δικαίωμά μου
TTITLE3=Αντωνιάδης Χρήστος_04 Δε φταίς εσύ
TTITLE4=Αντωνιάδης Χρήστος_05 Όποτε θές
TTITLE5=Αντωνιάδης Χρήστος_06 Άσε με
TTITLE6=Αντωνιάδης Χρήστος_07 Τη δεύτερη φορά
TTITLE7=Αντωνιάδης Χρήστος_08 Υπάρχουν και καλά παιδιά
TTITLE8=Αντωνιάδης Χρήστος_09 Κανονικά εγώ
TTITLE9=Αντωνιάδης Χρήστος_10 Λυκούργου και Αθηνάς
EXTD=
EXTT0=
EXTT1=
EXTT2=
EXTT3=
EXTT4=
EXTT5=
EXTT6=
EXTT7=
EXTT8=
EXTT9=
PLAYORDER=
